<?xml version="1.0" standalone="no" ?>
<!DOCTYPE svg PUBLIC "-//W3C//DTD SVG 1.1//EN" "http://www.w3.org/Graphics/SVG/1.1/DTD/svg11.dtd" >

<!-- <svg xmlns="http://www.w3.org/2000/svg" width="130" height="80" version="1.1">
    <circle cx="100" cy="50" r="40" stroke="black" stroke-width="2" fill="rgb(0,100,255)" stroke-opacity="0.5" fill-opacity="0.5" />
</svg> -->
<svg xmlns="http://www.w3.org/2000/svg" viewBox="0 0 1024 1024" width="100%" height="100%" fill="#fff">
<path d="M800 128H224C134.4 128 64 198.4 64 288v448c0 89.6 70.4 160 160 160h576c89.6 0 160-70.4 160-160V288c0-89.6-70.4-160-160-160z m96 608c0 54.4-41.6 96-96 96H224c-54.4 0-96-41.6-96-96V288c0-54.4 41.6-96 96-96h576c54.4 0 96 41.6 96 96v448z"></path><path d="M240 384h64v64h-64zM368 384h384v64h-384zM432 576h352v64h-352zM304 576h64v64h-64z"></path>
 </svg>